<svg xmlns="http://www.w3.org/2000/svg" viewBox="0 0 512 512" width="512" height="512">
  <defs>
    <linearGradient id="shieldGrad" x1="0%" y1="0%" x2="100%" y2="100%">
      <stop offset="0%" stop-color="#818CF8"/>
      <stop offset="100%" stop-color="#4F46E5"/>
    </linearGradient>
    <linearGradient id="clockGrad" x1="0%" y1="0%" x2="100%" y2="100%">
      <stop offset="0%" stop-color="#E0E7FF"/>
      <stop offset="100%" stop-color="#C7D2FE"/>
    </linearGradient>
  </defs>
  <!-- Shield body -->
  <path d="M256 28 L456 108 C456 108 468 300 256 484 C44 300 56 108 56 108 Z"
        fill="url(#shieldGrad)" stroke="none"/>
  <!-- Inner shield highlight -->
  <path d="M256 60 L428 128 C428 128 438 292 256 452 C74 292 84 128 84 128 Z"
        fill="none" stroke="#818CF8" stroke-width="4" opacity="0.5"/>
  <!-- Clock circle -->
  <circle cx="256" cy="240" r="120" fill="#1E1B4B" opacity="0.9"/>
  <circle cx="256" cy="240" r="108" fill="none" stroke="url(#clockGrad)" stroke-width="6"/>
  <!-- Hour markers -->
  <line x1="256" y1="144" x2="256" y2="160" stroke="#C7D2FE" stroke-width="6" stroke-linecap="round"/>
  <line x1="256" y1="320" x2="256" y2="336" stroke="#C7D2FE" stroke-width="6" stroke-linecap="round"/>
  <line x1="160" y1="240" x2="176" y2="240" stroke="#C7D2FE" stroke-width="6" stroke-linecap="round"/>
  <line x1="336" y1="240" x2="352" y2="240" stroke="#C7D2FE" stroke-width="6" stroke-linecap="round"/>
  <!-- Clock hands -->
  <line x1="256" y1="240" x2="256" y2="172" stroke="#E0E7FF" stroke-width="8" stroke-linecap="round"/>
  <line x1="256" y1="240" x2="308" y2="210" stroke="#E0E7FF" stroke-width="6" stroke-linecap="round"/>
  <!-- Center dot -->
  <circle cx="256" cy="240" r="8" fill="#818CF8"/>
</svg>
